<svg xmlns="http://www.w3.org/2000/svg" width="216.802" height="217.413" viewBox="0 0 216.802 217.413">
  <g id="Icon_ionic-ios-chatbubbles" data-name="Icon ionic-ios-chatbubbles" transform="translate(28.625 -3.375)">
    <path id="Path_11" data-name="Path 11" d="M171.093,144.5a12.542,12.542,0,0,1,1.708-6.316,17.428,17.428,0,0,1,1.087-1.6,83.882,83.882,0,0,0,14.288-46.747C188.332,42.1,148.056,3.375,98.255,3.375c-43.434,0-79.672,29.56-88.162,68.8a83.193,83.193,0,0,0-1.915,17.7c0,47.782,38.723,87.541,88.524,87.541,7.921,0,18.585-2.381,24.435-3.986s11.648-3.727,13.149-4.3a13.686,13.686,0,0,1,4.814-.88,13.459,13.459,0,0,1,5.229,1.035L173.682,179.7a7,7,0,0,0,2.019.518,4.121,4.121,0,0,0,4.142-4.142,6.651,6.651,0,0,0-.259-1.4Z" fill="red"/>
    <path id="Path_12" data-name="Path 12" d="M146.953,123.837c-1.911.531-4.352,1.115-7.006,1.7-5.573,1.168-12.686,2.389-18.047,2.389-51.062,0-90.764-40.764-90.764-89.756a100.35,100.35,0,0,1,.8-11.359c.318-2.282.69-4.565,1.221-6.794.531-2.389,1.168-4.777,1.858-7.113l-4.246,3.769A78.991,78.991,0,0,0,3.375,76.066,78.11,78.11,0,0,0,16.538,119.59c1.221,1.858,1.911,3.291,1.7,4.246s-6.316,32.909-6.316,32.909a4.258,4.258,0,0,0,1.433,4.087,4.324,4.324,0,0,0,2.707.955,3.807,3.807,0,0,0,1.539-.318l29.777-11.73a8.294,8.294,0,0,1,6.369.106,89.333,89.333,0,0,0,32.219,6.369,83.363,83.363,0,0,0,63.747-29.246s1.7-2.335,3.662-5.1C151.411,122.563,149.182,123.253,146.953,123.837Z" transform="translate(-32 59)" fill="red"/>
  </g>
</svg>
